PathFileType	4	(X/Y/Z)	Patient4_TMGait_0pt6_01_right_16.trc.trc
DataRate	CameraRate	NumFrames	NumMarkers	Units	OrigDataRate	OrigDataStartFrame	OrigNumFrames
80.459770114943	80.459770114943	5	33	mm	80.459770114943	18	       141
Frame#	Time	Sacral			L.Shoulder			Chest			R.Shoulder			Neck			R.ASIS			L.ASIS			R.Thigh.Superior			R.Thigh.Lateral			R.Thigh.Inferior			R.Patella			L.Thigh.Superior			L.Thigh.Lateral			L.Thigh.Inferior			L.Patella			L.Shank.Superior			L.Shank.Lateral			L.Shank.Inferior			R.Shank.Superior			R.Shank.Lateral			R.Shank.Inferior			R.Heel			R.Midfoot.Superior			R.Midfoot.Lateral			R.Toe			L.Heel			L.Midfoot.Lateral			L.Midfoot.Superior			L.Toe			L.Elbow			L.Wrist			R.Elbow			R.Wrist			
		X1	Y1	Z1	X2	Y2	Z2	X3	Y3	Z3	X4	Y4	Z4	X5	Y5	Z5	X6	Y6	Z6	X7	Y7	Z7	X8	Y8	Z8	X9	Y9	Z9	X10	Y10	Z10	X11	Y11	Z11	X12	Y12	Z12	X13	Y13	Z13	X14	Y14	Z14	X15	Y15	Z15	X16	Y16	Z16	X17	Y17	Z17	X18	Y18	Z18	X19	Y19	Z19	X20	Y20	Z20	X21	Y21	Z21	X22	Y22	Z22	X23	Y23	Z23	X24	Y24	Z24	X25	Y25	Z25	X26	Y26	Z26	X27	Y27	Z27	X28	Y28	Z28	X29	Y29	Z29	X30	Y30	Z30	X31	Y31	Z31	X32	Y32	Z32	X33	Y33	Z33	

18	19.081285714286	627.464692374373	1003.673655741372	417.786280634725	806.802913052839	1438.858794066343	251.560806077743	897.832274179248	1368.313456131556	417.814695676901	800.274455521252	1436.380782324004	585.682606676965	777.255910731853	1495.368197798841	404.146263587741	848.169561140487	944.106163319940	546.482206144479	846.026773253450	962.324441190948	272.522661991162	918.665704803209	768.400899135497	519.554635823345	877.344603372844	648.986744341998	595.833494701999	963.108109105861	607.831600854856	514.232847315327	997.245521136494	526.632606621757	532.450411518078	851.699264738014	732.925787493697	303.657815434686	737.031853889002	635.160076839249	243.173570862048	797.091697531667	544.084257571944	310.216190727699	781.622788591257	477.517279039149	322.538200007564	748.891778541346	410.209823428328	316.201184721175	646.075408879851	306.115437169369	268.301659116599	681.396072981764	192.528499084348	345.221924478305	983.527047040736	440.471142437961	543.566926271742	935.684665961742	326.373918441412	609.706805050923	1006.056450458877	241.502334359467	556.815855950213	917.137587778788	52.033348186467	531.792280008383	1079.688917949626	125.991162009507	564.872684487440	1004.365848655212	49.106262118915	602.137371229575	1206.355894609904	91.071541922087	587.333691148088	537.200204005706	44.713274338864	390.873114943587	613.295083047553	36.469883797894	313.518996504500	697.889653865968	96.133502145265	339.963044438903	825.084661320263	38.777509660794	317.054758751407	906.198967781138	1124.042064506692	93.837768752725	1161.706372658545	1089.802116836341	112.961462357833	651.390436409082	1122.037702486213	679.156783587578	612.727026180763	863.928817152989	684.327939112469	
19	19.093714285714	628.494290396405	1002.010976575900	419.615140107986	805.395769792491	1437.436106439346	252.227886132000	896.970314588603	1367.790392966801	418.537519401399	799.389809052036	1435.853907725832	586.387107044034	775.857993076542	1494.206153737729	404.704483087988	849.387041882312	942.653488425783	547.792806513896	846.667839863477	961.905804958832	274.222427910473	918.498720525366	765.274227944407	521.285617016877	875.279420169156	645.843653773355	596.782288143128	961.021799220515	604.386384564456	515.385776371391	994.261685927944	524.028086667505	532.752788690289	850.242905516295	731.927763078728	303.898485697490	734.135398243076	635.372521349040	243.653628701579	793.543934883276	543.501691439681	309.968920325734	777.406311238789	476.923983170075	322.143950599337	744.025771628629	409.965747815635	315.760432455154	639.838381444519	306.948213072762	268.208488334502	674.876419643128	192.799416642214	344.594806611105	981.838126809199	437.928684658416	543.693042032075	935.374777504073	323.005546706580	609.209326193392	1007.067877030975	239.292154307098	556.223177273938	920.524737528777	49.223892950315	530.487465390308	1082.325205727306	124.261834326687	563.834452909352	1007.451343578750	47.315867116189	601.168391386192	1209.106967444429	90.381724145987	586.985769044963	529.821769918362	45.737150063469	390.606724518705	605.881649129399	36.799090377662	313.364351592359	690.660265965667	96.260591431620	339.592186531393	817.590036723315	38.619453274943	317.014401369739	907.521818997439	1123.063843272509	95.741704657621	1163.384176585227	1092.964868640022	115.222707730203	651.197997771405	1121.681564899641	680.688531980647	613.096606649168	863.414485702105	685.826123301391	
20	19.106142857143	629.571476662380	1000.334692072144	421.657402253456	803.902054056845	1435.934518614874	253.027382271890	896.146355650445	1367.257744708445	419.355650673292	798.560016369741	1435.232976947222	587.240564248736	774.439051444847	1492.970291515323	405.417741390598	850.825445587804	941.123871124249	549.213595184318	847.394023883954	961.429943572608	276.028747793873	918.937193944590	762.315946171221	523.048296979124	873.714255489600	642.745871892064	597.530264453539	959.581807672398	601.186521924554	516.444527909546	991.785889038887	521.289605159829	532.930007324224	849.051329232985	730.892838574154	304.225154446178	731.552993343231	635.524618723160	244.279186159217	790.396551735068	542.860100665119	309.832451642288	773.594816043339	476.214604747033	321.897058733523	739.503657929296	409.626911604086	315.443085183275	633.881255008733	307.802195361743	268.201440616131	668.453526514403	193.041186350983	344.026427930849	980.037609888393	435.029769201460	543.583238002618	933.997095390213	319.693810332835	608.384552233374	1006.250657927644	236.616250268831	555.321402131636	920.541423915389	46.861402394752	528.942633409794	1082.094100912180	121.868722178886	562.587635380209	1007.092493972050	45.527940039787	600.029454498733	1208.687990798833	88.148621014194	586.473992155528	522.465796336858	46.835126807762	390.325320739734	598.478410209645	37.163858938101	313.196043215503	683.452310994038	96.418535948278	339.204420430543	810.097176599254	38.455903051219	316.969739999227	908.290926526236	1121.765723955643	97.774755580765	1164.426209563703	1095.001364933549	117.498489269901	651.957444334946	1120.725382204410	682.512572431044	615.253549750190	862.165372982093	687.571510248541	
21	19.118571428571	630.693090160736	998.681045689326	423.903030301378	802.352503285004	1434.381382780515	253.979068159289	895.391564752048	1366.720898590713	420.281177936813	797.825517043514	1434.529548599093	588.260416944227	773.044246376002	1491.685686779667	406.304457772500	852.474793710289	939.549333805956	550.729330381427	848.201395765921	960.877201822459	277.876474371053	919.953200255065	759.549476169736	524.801858821306	872.642596498308	639.758547015772	598.081191033750	958.772825775542	598.289432042823	517.395422889259	989.828383656641	518.495661220404	532.953891288648	848.148821134421	729.825704548227	304.636333435263	729.321525253358	635.598453588187	245.053513716814	787.698836617836	542.148272359232	309.816081561431	770.249215525715	475.364122311574	321.803441366486	735.367959349323	409.173556969135	315.264276150986	628.243833150285	308.669437304391	268.288693616852	662.132502088053	193.246731701864	343.532282571236	978.225986916202	431.869949338445	543.257600966990	931.804447337208	316.464238694501	607.332344264236	1003.923520606422	233.533926585283	554.169516685148	917.638253123133	44.888437454643	527.310131954996	1079.441527543232	118.894688569179	561.191699072486	1003.804266293168	43.742002149128	598.818829929908	1205.609981161093	84.527318785574	585.757471782087	515.127308004218	48.001633313915	390.029381675357	591.083991868639	37.560383914305	313.014892673056	676.268195918142	96.608660507652	338.795866433211	802.607304636507	38.291120651095	316.919346248612	908.490514864221	1120.154322026189	99.929441128916	1164.848311659428	1095.893939165144	119.764666567602	653.625718044447	1119.226273426795	684.627447185460	619.154263591908	860.260190015916	689.564482965249	
22	19.131000000000	631.859765529271	997.089043113763	426.339480016920	800.780452666814	1432.816520564195	255.100121233830	894.736922877724	1366.192561385409	421.322984464202	797.232510779651	1433.766880665760	589.460915394310	771.722598006709	1490.390435627744	407.379876331045	854.316594675691	937.977717930823	552.322432059756	849.083766004536	960.242050546578	279.705659814057	921.486285802680	757.005987644719	526.502922460532	872.057434717521	636.964226492229	598.461358270145	958.550254302484	595.749741257333	518.222215182205	988.369165418353	515.735528059752	532.808698259406	847.548576878381	728.743109237196	305.134280349447	727.470594617107	635.585811908270	245.980064050175	785.495145104552	541.366137990134	309.928352063056	767.431052433678	474.356621499132	321.856819224537	731.655079227888	408.597440204104	315.232498415122	622.957281914655	309.554719711534	268.480168670731	655.924993106533	193.421536629997	343.121841682016	976.496498841983	428.579970501852	542.760056365658	929.082576061347	313.378585274903	606.173384472531	1000.460610281954	230.174515632850	552.849734592763	912.393577465216	43.284674207943	525.735588484328	1074.889453864020	115.514827054261	559.720571098766	998.216121223858	42.006784517274	597.632894577834	1200.466528451237	79.817677646062	584.829399170123	507.802202304893	49.243757216336	389.721171875509	583.697729137795	37.989765436444	312.823523419967	669.117012916481	96.831145560374	338.361415897112	795.122881819233	38.131047489115	316.862365868651	908.108366208571	1118.250725445642	102.203134562995	1164.658837648153	1095.626638633681	121.995597843627	656.155589632940	1117.267517779208	687.026501976890	624.737609834368	857.809353803056	691.804942714709	
